# Blender 4.5.1 LTS
# www.blender.org
mtllib Refri.mtl
o Cube.011
v 13.639040 50.091591 -8.604686
v 13.639040 53.140518 -8.604686
v 13.639040 50.091591 -9.673320
v 13.639040 53.140518 -9.673320
v 11.623062 50.091591 -8.604686
v 11.623062 53.140518 -8.604686
v 11.623062 50.091591 -9.673320
v 11.623062 53.140518 -9.673320
v 13.558401 50.213551 -8.604686
v 13.558401 53.018559 -8.604686
v 13.558401 50.213551 -9.630574
v 13.558401 53.018559 -9.630574
v 11.703701 50.213551 -8.604686
v 11.703701 53.018559 -8.604686
v 11.703701 50.213551 -9.630574
v 11.703701 53.018559 -9.630574
vn 1.0000 -0.0000 -0.0000
vn -0.0000 -0.0000 -1.0000
vn -1.0000 -0.0000 -0.0000
vn -0.0000 -1.0000 -0.0000
vn -0.0000 1.0000 -0.0000
vn -0.0000 -0.0000 1.0000
vt 1.000000 1.000000
vt 0.000000 1.000000
vt 0.000000 0.000000
vt 1.000000 0.000000
s 0
usemtl MetalRefri
f 1/1/1 3/4/1 4/3/1 2/2/1
f 3/1/2 7/4/2 8/3/2 4/2/2
f 7/1/3 5/4/3 6/3/3 8/2/3
f 3/4/4 1/3/4 5/2/4 7/1/4
f 8/4/5 6/3/5 2/2/5 4/1/5
f 9/1/3 10/2/3 12/3/3 11/4/3
f 11/1/6 12/2/6 16/3/6 15/4/6
f 15/1/1 16/2/1 14/3/1 13/4/1
f 11/4/5 15/1/5 13/2/5 9/3/5
f 16/4/4 12/1/4 10/2/4 14/3/4
f 2/2/6 10/2/6 9/1/6 1/1/6
f 5/4/6 13/4/6 14/3/6 6/3/6
f 1/3/6 9/3/6 13/2/6 5/2/6
f 6/3/6 14/3/6 10/2/6 2/2/6
o Cube.012
v 12.449126 50.214157 -8.649499
v 12.449126 53.017960 -8.649499
v 12.449126 50.214157 -9.659698
v 12.449126 53.017960 -9.659698
v 12.399827 50.214157 -8.649499
v 12.399827 53.017960 -8.649499
v 12.399827 50.214157 -9.659698
v 12.399827 53.017960 -9.659698
vn 1.0000 -0.0000 -0.0000
vn -0.0000 -0.0000 -1.0000
vn -1.0000 -0.0000 -0.0000
vn -0.0000 -0.0000 1.0000
vn -0.0000 -1.0000 -0.0000
vn -0.0000 1.0000 -0.0000
vt 1.000000 1.000000
vt -0.000000 1.000000
vt 0.000000 -0.000000
vt 1.000000 0.000000
vt 0.375000 0.250000
vt 0.625000 0.250000
vt 0.625000 0.500000
vt 0.375000 0.500000
vt 1.000000 1.000000
vt -0.000000 1.000000
vt 0.000000 0.000000
vt 1.000000 0.000000
vt 0.375000 0.750000
vt 0.625000 0.750000
vt 0.625000 1.000000
vt 0.375000 1.000000
vt 0.125000 0.500000
vt 0.125000 0.750000
vt 0.875000 0.500000
vt 0.875000 0.750000
s 0
usemtl MetalRefri
f 17/5/7 19/8/7 20/7/7 18/6/7
f 19/9/8 23/12/8 24/11/8 20/10/8
f 23/13/9 21/16/9 22/15/9 24/14/9
f 21/17/10 17/20/10 18/19/10 22/18/10
f 19/21/11 17/22/11 21/17/11 23/12/11
f 24/11/12 22/18/12 18/24/12 20/23/12
o Cube.014
v 11.707720 52.279320 -8.652575
v 11.707720 52.230507 -8.652575
v 11.707720 52.279320 -9.666292
v 11.707720 52.230507 -9.666292
v 12.401546 52.279320 -8.652575
v 12.401546 52.230507 -8.652575
v 12.401546 52.279320 -9.666292
v 12.401546 52.230507 -9.666292
vn -1.0000 -0.0000 -0.0000
vn -0.0000 -0.0000 -1.0000
vn 1.0000 -0.0000 -0.0000
vn -0.0000 -0.0000 1.0000
vn -0.0000 1.0000 -0.0000
vn -0.0000 -1.0000 -0.0000
vt 0.333333 0.972319
vt 0.000000 0.972319
vt 0.000000 0.486160
vt 0.333333 0.486160
vt 1.000000 0.333333
vt 0.666667 0.333333
vt 0.666667 -0.000000
vt 1.000000 0.000000
vt 0.666667 0.972319
vt 0.333333 0.972319
vt 0.333333 0.486160
vt 0.666667 0.486160
vt 1.000000 0.666667
vt 0.666667 0.666667
vt 0.333333 0.486160
vt 0.000000 0.486160
vt 0.000000 0.000000
vt 0.333333 0.000000
vt 0.666667 0.486160
vt 0.333333 0.486160
vt 0.333333 0.000000
vt 0.666667 0.000000
s 0
usemtl MetalRefri
f 25/25/13 27/28/13 28/27/13 26/26/13
f 27/29/14 31/32/14 32/31/14 28/30/14
f 31/33/15 29/36/15 30/35/15 32/34/15
f 29/37/16 25/29/16 26/30/16 30/38/16
f 27/39/17 25/42/17 29/41/17 31/40/17
f 32/43/18 30/46/18 26/45/18 28/44/18
o Cube.016
v 11.216746 50.200241 -7.925985
v 11.216746 53.018414 -7.925985
v 11.729669 50.200241 -8.586777
v 11.729669 53.018414 -8.586777
v 11.193141 50.200241 -7.944308
v 11.193141 53.018414 -7.944308
v 11.706063 50.200241 -8.605100
v 11.706063 53.018414 -8.605100
vn 0.7675 -0.0106 0.6409
vn 0.7675 0.0106 0.6409
vn 0.8113 -0.0106 0.5846
vn 0.8113 0.0106 0.5846
vn -0.8113 -0.0106 -0.5846
vn -0.8113 0.0106 -0.5846
vn -0.7675 -0.0106 -0.6409
vn -0.7675 0.0106 -0.6409
vt 0.333333 0.333333
vt 0.000000 0.333333
vt 0.000000 0.000000
vt 0.333333 0.000000
vt 0.333333 0.666667
vt 0.000000 0.666667
vt 0.000000 0.333333
vt 0.333333 0.333333
vt 1.000000 1.000000
vt 0.000000 1.000000
vt 0.000000 0.000000
vt 1.000000 0.000000
vt 0.666667 0.666667
vt 0.333333 0.666667
vt 0.333333 0.333333
vt 0.666667 0.333333
vt 0.333333 0.666667
vt 0.333333 1.000000
vt 0.000000 1.000000
vt 0.000000 0.666667
vt 0.666667 0.666667
vt 0.666667 1.000000
vt 0.333333 1.000000
vt 0.333333 0.666667
s 1
usemtl PuertaRefri
f 33/47/19 35/50/21 36/49/22 34/48/20
f 35/51/21 39/54/25 40/53/26 36/52/22
f 39/55/25 37/58/23 38/57/24 40/56/26
f 37/59/23 33/62/19 34/61/20 38/60/24
f 35/63/21 33/66/19 37/65/23 39/64/25
f 40/67/26 38/70/24 34/69/20 36/68/22
o Cube.017
v 13.556812 50.211182 -8.651192
v 13.558017 53.020496 -8.651351
v 12.394049 50.211681 -8.649586
v 12.395253 53.020992 -8.649745
v 13.556881 50.211185 -8.601892
v 13.558085 53.020496 -8.602053
v 12.394116 50.211685 -8.600287
v 12.395321 53.020996 -8.600447
vn -0.0014 -0.0001 -1.0000
vn -1.0000 0.0004 0.0014
vn 0.0014 0.0001 1.0000
vn 1.0000 -0.0004 -0.0014
vn -0.0004 -1.0000 0.0001
vn 0.0004 1.0000 -0.0001
vt 0.000000 1.000000
vt 0.000000 0.000000
vt 1.000000 0.000000
vt 1.000000 1.000000
vt 0.333333 0.333333
vt 0.000000 0.333333
vt 0.000000 0.000000
vt 0.333333 0.000000
vt 1.000000 1.000000
vt 0.000000 1.000000
vt 0.000000 0.000000
vt 1.000000 0.000000
vt 0.666667 0.333333
vt 0.333333 0.333333
vt 0.333333 0.000000
vt 0.666667 0.000000
vt 0.666667 0.333333
vt 0.666667 0.666667
vt 0.333333 0.666667
vt 0.333333 0.333333
vt 0.333333 0.666667
vt 0.333333 1.000000
vt 0.000000 1.000000
vt 0.000000 0.666667
s 0
usemtl PuertaRefri
f 41/71/27 43/74/27 44/73/27 42/72/27
f 43/75/28 47/78/28 48/77/28 44/76/28
f 47/79/29 45/82/29 46/81/29 48/80/29
f 45/83/30 41/86/30 42/85/30 46/84/30
f 43/87/31 41/90/31 45/89/31 47/88/31
f 48/91/32 46/94/32 42/93/32 44/92/32
o Cube.018
v 12.664774 51.781761 -8.526304
v 12.664774 51.371315 -8.526304
v 12.664774 51.781761 -8.555473
v 12.664774 51.371315 -8.555473
v 12.597328 51.781761 -8.526304
v 12.597328 51.371315 -8.526304
v 12.597328 51.781761 -8.555473
v 12.597328 51.371315 -8.555473
v 12.664774 51.745270 -8.555473
v 12.597328 51.745270 -8.555473
v 12.597328 51.407181 -8.555473
v 12.664774 51.407181 -8.555473
v 12.664774 51.745270 -8.601681
v 12.664774 51.781761 -8.601681
v 12.597328 51.781761 -8.601681
v 12.597328 51.745270 -8.601681
v 12.664774 51.371315 -8.601519
v 12.597328 51.371315 -8.601519
v 12.597328 51.407181 -8.601519
v 12.664774 51.407181 -8.601519
vn 1.0000 -0.0000 -0.0000
vn -1.0000 -0.0000 -0.0000
vn -0.0000 -0.0000 1.0000
vn -0.0000 1.0000 -0.0000
vn -0.0000 -1.0000 -0.0000
vn -0.0000 -0.0000 -1.0000
vt 0.386981 1.000000
vt 0.000000 1.000000
vt 0.000000 0.613019
vt 0.033817 0.613019
vt 0.352577 0.613019
vt 0.386981 0.613019
vt 0.352577 0.386981
vt 0.386981 0.386981
vt 0.352576 1.000000
vt 0.033817 0.386981
vt 0.000000 0.386981
vt 0.000000 -0.000000
vt 0.386981 0.000000
vt 1.000000 1.000000
vt 0.000000 1.000000
vt 0.000000 0.000000
vt 1.000000 0.000000
vt 0.386981 0.386981
vt 0.000000 0.386981
vt 0.000000 0.000000
vt 0.386981 0.000000
vt 0.387814 0.387814
vt 0.000000 0.387814
vt 0.387814 0.000000
vt 0.699700 0.861013
vt 0.678342 0.861013
vt 0.678342 0.620782
vt 0.699700 0.620782
vt 0.678342 0.620782
vt 0.678342 0.861013
vt 0.480462 0.861013
vt 0.480462 0.620782
vt 0.000000 0.620782
vt 0.240231 0.620782
vt 0.240231 1.000000
vt 0.000000 1.000000
vt 0.386981 1.000000
vt 0.000000 1.000000
vt 0.352577 0.000000
vt 0.386981 0.000000
vt 0.720693 0.619449
vt 0.960924 0.619449
vt 0.960924 1.000000
vt 0.720693 1.000000
vt 0.720693 0.620782
vt 0.720693 0.861013
vt 0.033817 0.997853
vt 0.000000 0.997853
vt 0.387814 1.000000
vt 0.000000 0.002147
vt 0.033817 0.002147
s 0
usemtl MetalRefri
f 49/95/33 50/96/33 52/97/33 60/98/33 57/99/33 51/100/33
f 58/101/34 55/102/34 63/95/34 64/103/34
f 55/102/34 58/101/34 59/104/34 56/105/34 54/106/34 53/107/34
f 53/108/35 54/109/35 50/110/35 49/111/35
f 51/112/36 55/113/36 53/114/36 49/115/36
f 56/116/37 52/117/37 50/114/37 54/118/37
f 62/119/38 61/120/38 64/121/38 63/122/38
f 58/123/38 57/124/38 60/125/38 59/126/38
f 59/127/36 60/128/36 68/129/36 67/130/36
f 55/113/36 51/112/36 62/131/36 63/132/36
f 51/100/33 57/99/33 61/133/33 62/134/33
f 57/135/37 58/136/37 64/137/37 61/138/37
f 67/139/38 68/140/38 65/119/38 66/122/38
f 56/105/34 59/104/34 67/141/34 66/142/34
f 52/117/37 56/116/37 66/143/37 65/132/37
f 60/98/33 52/97/33 65/144/33 68/145/33
o Cube.046
v 11.707720 51.449474 -8.652575
v 11.707720 51.400661 -8.652575
v 11.707720 51.449474 -9.666292
v 11.707720 51.400661 -9.666292
v 12.401546 51.449474 -8.652575
v 12.401546 51.400661 -8.652575
v 12.401546 51.449474 -9.666292
v 12.401546 51.400661 -9.666292
vn -1.0000 -0.0000 -0.0000
vn -0.0000 -0.0000 -1.0000
vn 1.0000 -0.0000 -0.0000
vn -0.0000 -0.0000 1.0000
vn -0.0000 1.0000 -0.0000
vn -0.0000 -1.0000 -0.0000
vt 0.333333 0.972319
vt 0.000000 0.972319
vt 0.000000 0.486160
vt 0.333333 0.486160
vt 1.000000 0.333333
vt 0.666667 0.333333
vt 0.666667 -0.000000
vt 1.000000 0.000000
vt 0.666667 0.972319
vt 0.333333 0.972319
vt 0.333333 0.486160
vt 0.666667 0.486160
vt 1.000000 0.666667
vt 0.666667 0.666667
vt 0.333333 0.486160
vt 0.000000 0.486160
vt 0.000000 0.000000
vt 0.333333 0.000000
vt 0.666667 0.486160
vt 0.333333 0.486160
vt 0.333333 0.000000
vt 0.666667 0.000000
s 0
usemtl MetalRefri
f 69/146/39 71/149/39 72/148/39 70/147/39
f 71/150/40 75/153/40 76/152/40 72/151/40
f 75/154/41 73/157/41 74/156/41 76/155/41
f 73/158/42 69/150/42 70/151/42 74/159/42
f 71/160/43 69/163/43 73/162/43 75/161/43
f 76/164/44 74/167/44 70/166/44 72/165/44
o Cube.013
v 11.707720 50.799259 -8.652575
v 11.707720 50.750446 -8.652575
v 11.707720 50.799259 -9.666292
v 11.707720 50.750446 -9.666292
v 12.401546 50.799259 -8.652575
v 12.401546 50.750446 -8.652575
v 12.401546 50.799259 -9.666292
v 12.401546 50.750446 -9.666292
vn -1.0000 -0.0000 -0.0000
vn -0.0000 -0.0000 -1.0000
vn 1.0000 -0.0000 -0.0000
vn -0.0000 -0.0000 1.0000
vn -0.0000 1.0000 -0.0000
vn -0.0000 -1.0000 -0.0000
vt 0.333333 0.972319
vt 0.000000 0.972319
vt 0.000000 0.486160
vt 0.333333 0.486160
vt 1.000000 0.333333
vt 0.666667 0.333333
vt 0.666667 -0.000000
vt 1.000000 0.000000
vt 0.666667 0.972319
vt 0.333333 0.972319
vt 0.333333 0.486160
vt 0.666667 0.486160
vt 1.000000 0.666667
vt 0.666667 0.666667
vt 0.333333 0.486160
vt 0.000000 0.486160
vt 0.000000 0.000000
vt 0.333333 0.000000
vt 0.666667 0.486160
vt 0.333333 0.486160
vt 0.333333 0.000000
vt 0.666667 0.000000
s 0
usemtl MetalRefri
f 77/168/45 79/171/45 80/170/45 78/169/45
f 79/172/46 83/175/46 84/174/46 80/173/46
f 83/176/47 81/179/47 82/178/47 84/177/47
f 81/180/48 77/172/48 78/173/48 82/181/48
f 79/182/49 77/185/49 81/184/49 83/183/49
f 84/186/50 82/189/50 78/188/50 80/187/50
o Cube.001
v 11.236010 51.800224 -8.123363
v 11.236010 51.389778 -8.123363
v 11.260159 51.800224 -8.107000
v 11.260159 51.389778 -8.107000
v 11.273842 51.800224 -8.179199
v 11.273842 51.389778 -8.179199
v 11.297991 51.800224 -8.162837
v 11.297991 51.389778 -8.162837
v 11.260159 51.763733 -8.107000
v 11.297991 51.763733 -8.162837
v 11.297991 51.425644 -8.162837
v 11.260159 51.425644 -8.107000
v 11.298411 51.763733 -8.081081
v 11.298411 51.800224 -8.081081
v 11.336244 51.800224 -8.136918
v 11.336244 51.763733 -8.136918
v 11.298278 51.389778 -8.081173
v 11.336110 51.389778 -8.137009
v 11.336110 51.425644 -8.137009
v 11.298278 51.425644 -8.081173
vn -0.5609 -0.0000 0.8279
vn 0.5609 -0.0000 -0.8279
vn -0.8279 -0.0000 -0.5609
vn -0.0000 1.0000 -0.0000
vn -0.0000 -1.0000 -0.0000
vn 0.8279 -0.0000 0.5609
vt 0.386981 1.000000
vt 0.000000 1.000000
vt 0.000000 0.613019
vt 0.033817 0.613019
vt 0.352577 0.613019
vt 0.386981 0.613019
vt 0.352577 0.386981
vt 0.386981 0.386981
vt 0.352576 1.000000
vt 0.033817 0.386981
vt 0.000000 0.386981
vt 0.000000 -0.000000
vt 0.386981 0.000000
vt 1.000000 1.000000
vt 0.000000 1.000000
vt 0.000000 0.000000
vt 1.000000 0.000000
vt 0.386981 0.386981
vt 0.000000 0.386981
vt 0.000000 0.000000
vt 0.386981 0.000000
vt 0.387814 0.387814
vt 0.000000 0.387814
vt 0.387814 0.000000
vt 0.699700 0.861013
vt 0.678342 0.861013
vt 0.678342 0.620782
vt 0.699700 0.620782
vt 0.678342 0.620782
vt 0.678342 0.861013
vt 0.480462 0.861013
vt 0.480462 0.620782
vt 0.000000 0.620782
vt 0.240231 0.620782
vt 0.240231 1.000000
vt 0.000000 1.000000
vt 0.386981 1.000000
vt 0.000000 1.000000
vt 0.352577 0.000000
vt 0.386981 0.000000
vt 0.720693 0.619449
vt 0.960924 0.619449
vt 0.960924 1.000000
vt 0.720693 1.000000
vt 0.720693 0.620782
vt 0.720693 0.861013
vt 0.033817 0.997853
vt 0.000000 0.997853
vt 0.387814 1.000000
vt 0.000000 0.002147
vt 0.033817 0.002147
s 0
usemtl MetalRefri
f 85/190/51 86/191/51 88/192/51 96/193/51 93/194/51 87/195/51
f 94/196/52 91/197/52 99/190/52 100/198/52
f 91/197/52 94/196/52 95/199/52 92/200/52 90/201/52 89/202/52
f 89/203/53 90/204/53 86/205/53 85/206/53
f 87/207/54 91/208/54 89/209/54 85/210/54
f 92/211/55 88/212/55 86/209/55 90/213/55
f 98/214/56 97/215/56 100/216/56 99/217/56
f 94/218/56 93/219/56 96/220/56 95/221/56
f 95/222/54 96/223/54 104/224/54 103/225/54
f 91/208/54 87/207/54 98/226/54 99/227/54
f 87/195/51 93/194/51 97/228/51 98/229/51
f 93/230/55 94/231/55 100/232/55 97/233/55
f 103/234/56 104/235/56 101/214/56 102/217/56
f 92/200/52 95/199/52 103/236/52 102/237/52
f 88/212/55 92/211/55 102/238/55 101/227/55
f 96/193/51 88/192/51 101/239/51 104/240/51
