# Blender 4.5.1 LTS
# www.blender.org
mtllib Cuarto.mtl
o Cube.008
v 1.753659 50.077427 -9.828722
v 1.753659 52.235912 -9.828722
v 1.625431 50.082703 -9.893149
v 1.625431 52.174618 -9.893149
v 1.753660 50.077427 -11.230514
v 1.753660 52.235912 -11.230514
v 1.625431 50.082703 -11.166085
v 1.625431 52.174618 -11.166085
v 1.625431 52.235912 -9.828722
v 1.625431 50.077427 -9.828722
v 1.625431 50.077427 -11.230514
v 1.625431 52.235912 -11.230514
vn -0.0000 -0.0000 1.0000
vn -1.0000 -0.0000 -0.0000
vn -0.0000 -0.0000 -1.0000
vn 1.0000 -0.0000 -0.0000
vn -0.0000 -1.0000 -0.0000
vn -0.0000 1.0000 -0.0000
vt 0.375000 0.000000
vt 0.625000 0.000000
vt 0.625000 0.250000
vt 0.375000 0.250000
vt 0.000000 1.000000
vt 0.000000 0.000000
vt 0.936976 0.000000
vt 0.936976 1.000000
vt 0.375000 0.500000
vt 0.625000 0.500000
vt 0.625000 0.750000
vt 0.375000 0.750000
vt 1.000000 1.000000
vt 0.000000 1.000000
vt 0.000000 -0.000000
vt 1.000000 0.000000
vt 0.125000 0.500000
vt 0.125000 0.750000
vt 0.875000 0.500000
vt 0.875000 0.750000
vt 0.028398 0.954039
vt 0.997556 0.954039
vt 0.000000 1.000000
vt 0.386490 0.261490
vt 0.386490 0.488510
vt 0.028398 0.045961
vt 0.000000 0.000000
vt 0.997556 0.045961
vt 1.000000 0.000000
s 0
usemtl Sillas
f 1/1/1 2/2/1 9/3/1 10/4/1
f 11/9/3 12/10/3 6/11/3 5/12/3
f 5/13/4 6/14/4 2/15/4 1/16/4
f 10/17/5 11/9/5 5/12/5 1/18/5
f 12/10/6 9/19/6 2/20/6 6/11/6
f 4/21/2 3/22/2 10/13/2 9/23/2
f 3/24/2 7/25/2 11/9/2 10/4/2
f 8/26/2 4/21/2 9/23/2 12/27/2
f 7/28/2 8/26/2 12/27/2 11/29/2
usemtl Puerta
f 3/5/2 4/6/2 8/7/2 7/8/2
o Circle.011
v 1.601481 51.439098 -10.272640
v 1.601481 51.388474 -10.277626
v 1.601481 51.339798 -10.292393
v 1.601481 51.294933 -10.316372
v 1.601482 51.255611 -10.348642
v 1.601482 51.223343 -10.387964
v 1.601482 51.199364 -10.432827
v 1.601482 51.184597 -10.481504
v 1.601482 51.179611 -10.532128
v 1.601482 51.184597 -10.582752
v 1.601482 51.199364 -10.631430
v 1.601482 51.223343 -10.676292
v 1.601482 51.255611 -10.715614
v 1.601482 51.294933 -10.747885
v 1.601482 51.339798 -10.771864
v 1.601482 51.388474 -10.786631
v 1.601482 51.439098 -10.791616
v 1.601482 51.489723 -10.786631
v 1.601482 51.538399 -10.771864
v 1.601482 51.583263 -10.747885
v 1.601482 51.622585 -10.715614
v 1.601482 51.654854 -10.676292
v 1.601482 51.678833 -10.631430
v 1.601482 51.693600 -10.582752
v 1.601482 51.698586 -10.532128
v 1.601482 51.693600 -10.481504
v 1.601482 51.678833 -10.432827
v 1.601482 51.654854 -10.387964
v 1.601482 51.622585 -10.348642
v 1.601482 51.583263 -10.316372
v 1.601481 51.538399 -10.292393
v 1.601481 51.489723 -10.277626
v 1.625252 51.388474 -10.277626
v 1.625252 51.439098 -10.272640
v 1.625252 51.339798 -10.292393
v 1.625252 51.294933 -10.316372
v 1.625252 51.255611 -10.348642
v 1.625252 51.223343 -10.387964
v 1.625252 51.199364 -10.432827
v 1.625252 51.184597 -10.481504
v 1.625252 51.179611 -10.532128
v 1.625253 51.184597 -10.582752
v 1.625253 51.199364 -10.631430
v 1.625253 51.223343 -10.676292
v 1.625253 51.255611 -10.715614
v 1.625253 51.294933 -10.747885
v 1.625253 51.339798 -10.771864
v 1.625253 51.388474 -10.786631
v 1.625253 51.439098 -10.791616
v 1.625253 51.489723 -10.786631
v 1.625253 51.538399 -10.771864
v 1.625253 51.583263 -10.747885
v 1.625253 51.622585 -10.715614
v 1.625253 51.654854 -10.676292
v 1.625253 51.678833 -10.631430
v 1.625253 51.693600 -10.582752
v 1.625253 51.698586 -10.532128
v 1.625252 51.693600 -10.481504
v 1.625252 51.678833 -10.432827
v 1.625252 51.654854 -10.387964
v 1.625252 51.622585 -10.348642
v 1.625252 51.583263 -10.316372
v 1.625252 51.538399 -10.292393
v 1.625252 51.489723 -10.277626
vn -1.0000 -0.0000 -0.0000
vn 1.0000 -0.0000 -0.0000
vn -0.0000 0.4714 0.8819
vn -0.0000 0.0980 -0.9952
vn -0.0000 -0.6344 0.7730
vn -0.0000 0.2903 0.9569
vn -0.0000 0.2903 -0.9569
vn -0.0000 -0.7730 0.6344
vn -0.0000 0.0980 0.9952
vn -0.0000 0.4714 -0.8819
vn -0.0000 -0.8819 0.4714
vn -0.0000 0.6344 -0.7730
vn -0.0000 -0.9569 0.2903
vn -0.0000 0.7730 -0.6344
vn -0.0000 -0.9952 0.0980
vn -0.0000 0.8819 -0.4714
vn -0.0000 -0.9952 -0.0980
vn -0.0000 0.9569 -0.2903
vn -0.0000 -0.9569 -0.2903
vn -0.0000 0.9952 -0.0980
vn -0.0000 -0.8819 -0.4714
vn -0.0000 0.9952 0.0980
vn -0.0000 -0.7730 -0.6344
vn -0.0000 0.9569 0.2903
vn -0.0000 -0.6344 -0.7730
vn -0.0000 0.8819 0.4714
vn -0.0000 -0.4714 -0.8819
vn -0.0000 -0.0980 0.9952
vn -0.0000 0.7730 0.6344
vn -0.0000 -0.2903 -0.9569
vn -0.0000 -0.2903 0.9569
vn -0.0000 0.6344 0.7730
vn -0.0000 -0.0980 -0.9952
vn -0.0000 -0.4714 0.8819
vt 1.055867 0.378772
vt 1.068836 0.489545
vt 1.059946 0.600721
vt 1.029537 0.708025
vt 0.978779 0.807336
vt 0.909621 0.894835
vt 0.824722 0.967162
vt 0.727343 1.021536
vt 0.621228 1.055867
vt 0.510455 1.068836
vt 0.399279 1.059946
vt 0.291975 1.029537
vt 0.192664 0.978779
vt 0.105165 0.909621
vt 0.032838 0.824722
vt -0.021536 0.727343
vt -0.055867 0.621228
vt -0.068836 0.510455
vt -0.059946 0.399280
vt -0.029537 0.291975
vt 0.021221 0.192664
vt 0.090379 0.105165
vt 0.175278 0.032838
vt 0.272657 -0.021536
vt 0.378772 -0.055867
vt 0.489545 -0.068836
vt 0.600721 -0.059946
vt 0.708025 -0.029537
vt 0.807336 0.021221
vt 0.894835 0.090379
vt 0.967162 0.175278
vt 1.021536 0.272657
vt 1.055517 0.378848
vt 1.021208 0.272800
vt 0.966868 0.175483
vt 0.894587 0.090637
vt 0.807142 0.021523
vt 0.707895 -0.029204
vt 0.600657 -0.059594
vt 0.489552 -0.068479
vt 0.378848 -0.055517
vt 0.272800 -0.021208
vt 0.175483 0.033132
vt 0.090637 0.105413
vt 0.021523 0.192858
vt -0.029204 0.292106
vt -0.059594 0.399343
vt -0.068479 0.510448
vt -0.055517 0.621152
vt -0.021208 0.727200
vt 0.033132 0.824517
vt 0.105413 0.909363
vt 0.192858 0.978477
vt 0.292106 1.029204
vt 0.399343 1.059594
vt 0.510448 1.068479
vt 0.621152 1.055517
vt 0.727200 1.021208
vt 0.824517 0.966868
vt 0.909363 0.894587
vt 0.978477 0.807142
vt 1.029204 0.707894
vt 1.059594 0.600657
vt 1.068479 0.489552
s 0
usemtl Cuarto
f 14/30/7 13/31/7 44/32/7 43/33/7 42/34/7 41/35/7 40/36/7 39/37/7 38/38/7 37/39/7 36/40/7 35/41/7 34/42/7 33/43/7 32/44/7 31/45/7 30/46/7 29/47/7 28/48/7 27/49/7 26/50/7 25/51/7 24/52/7 23/53/7 22/54/7 21/55/7 20/56/7 19/57/7 18/58/7 17/59/7 16/60/7 15/61/7
f 45/62/8 47/63/8 48/64/8 49/65/8 50/66/8 51/67/8 52/68/8 53/69/8 54/70/8 55/71/8 56/72/8 57/73/8 58/74/8 59/75/8 60/76/8 61/77/8 62/78/8 63/79/8 64/80/8 65/81/8 66/82/8 67/83/8 68/84/8 69/85/8 70/86/8 71/87/8 72/88/8 73/89/8 74/90/8 75/91/8 76/92/8 46/93/8
f 42/34/9 43/33/9 75/33/9 74/34/9
f 29/47/10 30/46/10 62/46/10 61/47/10
f 16/60/11 17/59/11 49/59/11 48/60/11
f 43/33/12 44/32/12 76/32/12 75/33/12
f 30/46/13 31/45/13 63/45/13 62/46/13
f 17/59/14 18/58/14 50/58/14 49/59/14
f 44/32/15 13/31/15 46/31/15 76/32/15
f 31/45/16 32/44/16 64/44/16 63/45/16
f 18/58/17 19/57/17 51/57/17 50/58/17
f 32/44/18 33/43/18 65/43/18 64/44/18
f 19/57/19 20/56/19 52/56/19 51/57/19
f 33/43/20 34/42/20 66/42/20 65/43/20
f 20/56/21 21/55/21 53/55/21 52/56/21
f 34/42/22 35/41/22 67/41/22 66/42/22
f 21/55/23 22/54/23 54/54/23 53/55/23
f 35/41/24 36/40/24 68/40/24 67/41/24
f 22/54/25 23/53/25 55/53/25 54/54/25
f 36/40/26 37/39/26 69/39/26 68/40/26
f 23/53/27 24/52/27 56/52/27 55/53/27
f 37/39/28 38/38/28 70/38/28 69/39/28
f 24/52/29 25/51/29 57/51/29 56/52/29
f 38/38/30 39/37/30 71/37/30 70/38/30
f 25/51/31 26/50/31 58/50/31 57/51/31
f 39/37/32 40/36/32 72/36/32 71/37/32
f 26/50/33 27/49/33 59/49/33 58/50/33
f 13/31/34 14/30/34 45/30/34 46/31/34
f 40/36/35 41/35/35 73/35/35 72/36/35
f 27/49/36 28/48/36 60/48/36 59/49/36
f 14/30/37 15/61/37 47/61/37 45/30/37
f 41/35/38 42/34/38 74/34/38 73/35/38
f 28/48/39 29/47/39 61/47/39 60/48/39
f 15/61/40 16/60/40 48/60/40 47/61/40
