# Blender 4.5.1 LTS
# www.blender.org
mtllib Mesa.mtl
o Circle
v 10.585807 50.099045 -4.421886
v 10.463978 50.099045 -4.409887
v 10.346829 50.099045 -4.374351
v 10.238866 50.099045 -4.316643
v 10.144235 50.099045 -4.238982
v 10.066573 50.099045 -4.144351
v 10.008865 50.099045 -4.036386
v 9.973329 50.099045 -3.919239
v 9.961329 50.099045 -3.797410
v 9.973329 50.099045 -3.675580
v 10.008865 50.099045 -3.558433
v 10.066573 50.099045 -3.450469
v 10.144235 50.099045 -3.355838
v 10.238866 50.099045 -3.278176
v 10.346829 50.099045 -3.220468
v 10.463978 50.099045 -3.184932
v 10.585807 50.099045 -3.172932
v 10.707636 50.099045 -3.184932
v 10.824784 50.099045 -3.220468
v 10.932748 50.099045 -3.278176
v 11.027379 50.099045 -3.355838
v 11.105041 50.099045 -3.450469
v 11.162748 50.099045 -3.558433
v 11.198285 50.099045 -3.675580
v 11.210284 50.099045 -3.797410
v 11.198285 50.099045 -3.919239
v 11.162748 50.099045 -4.036386
v 11.105041 50.099045 -4.144351
v 11.027379 50.099045 -4.238982
v 10.932748 50.099045 -4.316643
v 10.824784 50.099045 -4.374351
v 10.707636 50.099045 -4.409887
v 10.442397 51.258389 -4.518379
v 10.585807 51.258389 -4.532503
v 10.304499 51.258389 -4.476548
v 10.177410 51.258389 -4.408617
v 10.066017 51.258389 -4.317199
v 9.974599 51.258389 -4.205806
v 9.906669 51.258389 -4.078718
v 9.864838 51.258389 -3.940819
v 9.850713 51.258389 -3.797410
v 9.864838 51.258389 -3.654000
v 9.906669 51.258389 -3.516101
v 9.974599 51.258389 -3.389013
v 10.066017 51.258389 -3.277620
v 10.177410 51.258389 -3.186201
v 10.304499 51.258389 -3.118272
v 10.442397 51.258389 -3.076440
v 10.585807 51.258389 -3.062316
v 10.729217 51.258389 -3.076440
v 10.867115 51.258389 -3.118272
v 10.994203 51.258389 -3.186201
v 11.105597 51.258389 -3.277620
v 11.197015 51.258389 -3.389013
v 11.264945 51.258389 -3.516101
v 11.306776 51.258389 -3.654000
v 11.320900 51.258389 -3.797410
v 11.306776 51.258389 -3.940819
v 11.264945 51.258389 -4.078718
v 11.197015 51.258389 -4.205806
v 11.105597 51.258389 -4.317199
v 10.994203 51.258389 -4.408617
v 10.867115 51.258389 -4.476548
v 10.729217 51.258389 -4.518379
vn -0.0000 -0.5115 -0.8593
vn -0.1676 -0.5115 -0.8428
vn -0.3288 -0.5115 -0.7939
vn -0.4774 -0.5115 -0.7145
vn -0.6076 -0.5115 -0.6076
vn -0.7145 -0.5115 -0.4774
vn -0.7939 -0.5115 -0.3288
vn -0.8428 -0.5115 -0.1676
vn -0.8593 -0.5115 -0.0000
vn -0.8428 -0.5115 0.1676
vn -0.7939 -0.5115 0.3288
vn -0.7145 -0.5115 0.4774
vn -0.6076 -0.5115 0.6076
vn -0.4774 -0.5115 0.7145
vn -0.3288 -0.5115 0.7939
vn -0.1676 -0.5115 0.8428
vn -0.0000 -0.5115 0.8593
vn 0.1676 -0.5115 0.8428
vn 0.3288 -0.5115 0.7939
vn 0.4774 -0.5115 0.7145
vn 0.6076 -0.5115 0.6076
vn 0.7145 -0.5115 0.4774
vn 0.7939 -0.5115 0.3288
vn 0.8428 -0.5115 0.1676
vn 0.8593 -0.5115 -0.0000
vn 0.8428 -0.5115 -0.1676
vn 0.7939 -0.5115 -0.3288
vn 0.7145 -0.5115 -0.4774
vn 0.6076 -0.5115 -0.6076
vn 0.4774 -0.5115 -0.7145
vn 0.3288 -0.5115 -0.7939
vn 0.1676 -0.5115 -0.8428
vn -0.1801 0.3838 -0.9057
vn -0.0000 0.3838 -0.9234
vn -0.3534 0.3838 -0.8531
vn -0.5130 0.3838 -0.7678
vn -0.6529 0.3838 -0.6529
vn -0.7678 0.3838 -0.5130
vn -0.8531 0.3838 -0.3534
vn -0.9057 0.3838 -0.1801
vn -0.9234 0.3838 -0.0000
vn -0.9057 0.3838 0.1801
vn -0.8531 0.3838 0.3534
vn -0.7678 0.3838 0.5130
vn -0.6529 0.3838 0.6529
vn -0.5130 0.3838 0.7678
vn -0.3534 0.3838 0.8531
vn -0.1801 0.3838 0.9057
vn -0.0000 0.3838 0.9234
vn 0.1801 0.3838 0.9057
vn 0.3534 0.3838 0.8531
vn 0.5130 0.3838 0.7678
vn 0.6529 0.3838 0.6529
vn 0.7678 0.3838 0.5130
vn 0.8531 0.3838 0.3534
vn 0.9057 0.3838 0.1801
vn 0.9234 0.3838 -0.0000
vn 0.9057 0.3838 -0.1801
vn 0.8531 0.3838 -0.3534
vn 0.7678 0.3838 -0.5130
vn 0.6529 0.3838 -0.6529
vn 0.5130 0.3838 -0.7678
vn 0.3534 0.3838 -0.8531
vn 0.1801 0.3838 -0.9057
vt 0.111625 0.818731
vt 0.056906 0.736839
vt 0.019215 0.645845
vt -0.000000 0.549246
vt -0.000000 0.450754
vt 0.019215 0.354155
vt 0.056906 0.263161
vt 0.111625 0.181269
vt 0.181269 0.111625
vt 0.263161 0.056906
vt 0.354155 0.019215
vt 0.450754 -0.000000
vt 0.549246 -0.000000
vt 0.645845 0.019215
vt 0.736839 0.056906
vt 0.818731 0.111625
vt 0.888375 0.181269
vt 0.943094 0.263161
vt 0.980785 0.354155
vt 1.000000 0.450754
vt 1.000000 0.549246
vt 0.980785 0.645845
vt 0.943094 0.736839
vt 0.888375 0.818731
vt 0.818731 0.888375
vt 0.736839 0.943094
vt 0.645845 0.980785
vt 0.549246 1.000000
vt 0.450754 1.000000
vt 0.354155 0.980785
vt 0.263161 0.943094
vt 0.181269 0.888375
vt 0.019215 0.645845
vt 0.000000 0.549246
vt 0.000000 0.450754
vt 0.019215 0.354155
vt 0.056906 0.263161
vt 0.111625 0.181269
vt 0.181269 0.111625
vt 0.263161 0.056906
vt 0.354156 0.019215
vt 0.450754 0.000000
vt 0.549246 0.000000
vt 0.645845 0.019215
vt 0.736839 0.056906
vt 0.818732 0.111625
vt 0.888375 0.181269
vt 0.943094 0.263161
vt 0.980785 0.354156
vt 1.000000 0.450755
vt 1.000000 0.549246
vt 0.980785 0.645845
vt 0.943094 0.736839
vt 0.888375 0.818732
vt 0.818731 0.888376
vt 0.736839 0.943094
vt 0.645844 0.980785
vt 0.549246 1.000000
vt 0.450754 1.000000
vt 0.354155 0.980785
vt 0.263161 0.943094
vt 0.181268 0.888375
vt 0.111625 0.818731
vt 0.056906 0.736839
vt 0.650794 0.729015
vt 0.650794 0.790996
vt 0.335878 0.796486
vt 0.335878 0.723525
vt 0.655285 0.390634
vt 0.660680 0.442276
vt 0.347459 0.472142
vt 0.341109 0.411353
vt 0.653016 0.851787
vt 0.338494 0.868044
vt 0.667939 0.486242
vt 0.356005 0.523896
vt 0.657375 0.909050
vt 0.343625 0.935451
vt 1.000000 0.041182
vt 0.992740 0.092594
vt 0.679520 0.060520
vt 0.688065 0.000000
vt 0.663703 0.960585
vt 0.351074 0.996115
vt 0.987346 0.149769
vt 0.673170 0.127822
vt 0.335878 0.043293
vt 0.327824 0.087120
vt 0.015196 0.051591
vt 0.024676 -0.000000
vt 0.984024 0.210509
vt 0.669260 0.199322
vt 0.317138 0.379481
vt 0.321496 0.436745
vt 0.007747 0.463146
vt 0.002616 0.395739
vt 0.321496 0.138656
vt 0.007747 0.112255
vt 0.982903 0.272481
vt 0.667939 0.272270
vt 0.327824 0.488280
vt 0.015196 0.523810
vt 0.317138 0.195919
vt 0.002616 0.179662
vt 0.984024 0.333301
vt 0.669260 0.343864
vt 0.335878 0.532108
vt 0.024676 0.575401
vt 0.314915 0.256710
vt 0.000000 0.251220
vt 0.987346 0.390634
vt 0.673170 0.411353
vt 0.667939 0.041181
vt 0.660680 0.092594
vt 0.347459 0.060520
vt 0.356005 0.000000
vt 0.314915 0.318691
vt 0.000000 0.324181
vt 0.992740 0.442276
vt 0.679520 0.472142
vt 0.655285 0.149769
vt 0.341109 0.127822
vt 1.000000 0.486242
vt 0.688065 0.523896
vt 0.651963 0.210509
vt 0.337199 0.199322
vt 0.663703 0.559426
vt 0.657375 0.610961
vt 0.343625 0.584560
vt 0.351074 0.523896
vt 0.650842 0.272480
vt 0.335878 0.272270
vt 0.653016 0.668225
vt 0.338494 0.651967
vt 0.651963 0.333301
vt 0.337199 0.343864
s 1
usemtl Mesa
f 2/1/2 1/2/1 32/3/32 31/4/31 30/5/30 29/6/29 28/7/28 27/8/27 26/9/26 25/10/25 24/11/24 23/12/23 22/13/22 21/14/21 20/15/20 19/16/19 18/17/18 17/18/17 16/19/16 15/20/15 14/21/14 13/22/13 12/23/12 11/24/11 10/25/10 9/26/9 8/27/8 7/28/7 6/29/6 5/30/5 4/31/4 3/32/3
f 33/33/33 35/34/35 36/35/36 37/36/37 38/37/38 39/38/39 40/39/40 41/40/41 42/41/42 43/42/43 44/43/44 45/44/45 46/45/46 47/46/47 48/47/48 49/48/49 50/49/50 51/50/51 52/51/52 53/52/53 54/53/54 55/54/55 56/55/56 57/56/57 58/57/58 59/58/59 60/59/60 61/60/61 62/61/62 63/62/63 64/63/64 34/64/34
f 23/65/23 24/66/24 56/67/56 55/68/55
f 10/69/10 11/70/11 43/71/43 42/72/42
f 24/66/24 25/73/25 57/74/57 56/67/56
f 11/70/11 12/75/12 44/76/44 43/71/43
f 25/73/25 26/77/26 58/78/58 57/74/57
f 12/79/12 13/80/13 45/81/45 44/82/44
f 26/77/26 27/83/27 59/84/59 58/78/58
f 13/80/13 14/85/14 46/86/46 45/81/45
f 27/87/27 28/88/28 60/89/60 59/90/59
f 14/85/14 15/91/15 47/92/47 46/86/46
f 1/93/1 2/94/2 33/95/33 34/96/34
f 28/88/28 29/97/29 61/98/61 60/89/60
f 15/91/15 16/99/16 48/100/48 47/92/47
f 2/94/2 3/101/3 35/102/35 33/95/33
f 29/97/29 30/103/30 62/104/62 61/98/61
f 16/99/16 17/105/17 49/106/49 48/100/48
f 3/101/3 4/107/4 36/108/36 35/102/35
f 30/103/30 31/109/31 63/110/63 62/104/62
f 17/105/17 18/111/18 50/112/50 49/106/49
f 4/113/4 5/114/5 37/115/37 36/116/36
f 31/109/31 32/117/32 64/118/64 63/110/63
f 18/111/18 19/119/19 51/120/51 50/112/50
f 5/114/5 6/121/6 38/122/38 37/115/37
f 32/117/32 1/93/1 34/96/34 64/118/64
f 19/119/19 20/123/20 52/124/52 51/120/51
f 6/121/6 7/125/7 39/126/39 38/122/38
f 20/127/20 21/128/21 53/129/53 52/130/52
f 7/125/7 8/131/8 40/132/40 39/126/39
f 21/128/21 22/133/22 54/134/54 53/129/53
f 8/131/8 9/135/9 41/136/41 40/132/40
f 22/133/22 23/65/23 55/68/55 54/134/54
f 9/135/9 10/69/10 42/72/42 41/136/41
o Circle.001
v 10.585807 51.254242 -2.558335
v 10.827538 51.254242 -2.582143
v 11.059980 51.254242 -2.652654
v 11.274199 51.254242 -2.767157
v 11.461965 51.254242 -2.921252
v 11.616059 51.254242 -3.109016
v 11.730562 51.254242 -3.323236
v 11.801073 51.254242 -3.555678
v 11.824882 51.254242 -3.797410
v 11.801073 51.254242 -4.039141
v 11.730562 51.254242 -4.271583
v 11.616059 51.254242 -4.485803
v 11.461965 51.254242 -4.673568
v 11.274199 51.254242 -4.827662
v 11.059980 51.254242 -4.942165
v 10.827538 51.254242 -5.012676
v 10.585807 51.254242 -5.036484
v 10.344075 51.254242 -5.012676
v 10.111633 51.254242 -4.942165
v 9.897414 51.254242 -4.827662
v 9.709649 51.254242 -4.673568
v 9.555554 51.254242 -4.485803
v 9.441051 51.254242 -4.271583
v 9.370541 51.254242 -4.039141
v 9.346732 51.254242 -3.797410
v 9.370541 51.254242 -3.555678
v 9.441051 51.254242 -3.323236
v 9.555554 51.254242 -3.109016
v 9.709649 51.254242 -2.921252
v 9.897414 51.254242 -2.767157
v 10.111633 51.254242 -2.652654
v 10.344075 51.254242 -2.582143
v 10.827538 51.344807 -2.582143
v 10.585807 51.344807 -2.558335
v 11.059980 51.344807 -2.652654
v 11.274199 51.344807 -2.767157
v 11.461965 51.344807 -2.921252
v 11.616059 51.344807 -3.109016
v 11.730562 51.344807 -3.323236
v 11.801073 51.344807 -3.555678
v 11.824882 51.344807 -3.797410
v 11.801073 51.344807 -4.039141
v 11.730562 51.344807 -4.271583
v 11.616059 51.344807 -4.485803
v 11.461965 51.344807 -4.673568
v 11.274199 51.344807 -4.827662
v 11.059980 51.344807 -4.942165
v 10.827538 51.344807 -5.012676
v 10.585807 51.344807 -5.036484
v 10.344075 51.344807 -5.012676
v 10.111633 51.344807 -4.942165
v 9.897414 51.344807 -4.827662
v 9.709649 51.344807 -4.673568
v 9.555554 51.344807 -4.485803
v 9.441051 51.344807 -4.271583
v 9.370541 51.344807 -4.039141
v 9.346732 51.344807 -3.797410
v 9.370541 51.344807 -3.555678
v 9.441051 51.344807 -3.323236
v 9.555554 51.344807 -3.109016
v 9.709649 51.344807 -2.921252
v 9.897414 51.344807 -2.767157
v 10.111633 51.344807 -2.652654
v 10.344075 51.344807 -2.582143
vn -0.0000 1.0000 -0.0000
vn -0.0000 -1.0000 -0.0000
vn 0.9952 -0.0000 -0.0980
vn -0.7730 -0.0000 0.6344
vn 0.9569 -0.0000 -0.2903
vn -0.6344 -0.0000 0.7730
vn 0.8819 -0.0000 -0.4714
vn -0.4714 -0.0000 0.8819
vn -0.0980 -0.0000 -0.9952
vn 0.7730 -0.0000 -0.6344
vn -0.2903 -0.0000 0.9569
vn -0.2903 -0.0000 -0.9569
vn 0.6344 -0.0000 -0.7730
vn -0.0980 -0.0000 0.9952
vn -0.4714 -0.0000 -0.8819
vn 0.4714 -0.0000 -0.8819
vn 0.0980 -0.0000 0.9952
vn -0.6344 -0.0000 -0.7730
vn 0.2903 -0.0000 -0.9569
vn 0.2903 -0.0000 0.9569
vn -0.7730 -0.0000 -0.6344
vn 0.0980 -0.0000 -0.9952
vn 0.4714 -0.0000 0.8819
vn -0.8819 -0.0000 -0.4714
vn 0.6344 -0.0000 0.7730
vn -0.9569 -0.0000 -0.2903
vn 0.7730 -0.0000 0.6344
vn -0.9952 -0.0000 -0.0980
vn 0.8819 -0.0000 0.4714
vn -0.9952 -0.0000 0.0980
vn 0.9569 -0.0000 0.2903
vn -0.9569 -0.0000 0.2903
vn 0.9952 -0.0000 0.0980
vn -0.8819 -0.0000 0.4714
vt 0.181269 0.888375
vt 0.111625 0.818731
vt 0.056906 0.736839
vt 0.019215 0.645845
vt 0.000000 0.549246
vt 0.000000 0.450754
vt 0.019215 0.354155
vt 0.056906 0.263161
vt 0.111625 0.181269
vt 0.181269 0.111625
vt 0.263161 0.056906
vt 0.354155 0.019215
vt 0.450754 0.000000
vt 0.549246 0.000000
vt 0.645845 0.019215
vt 0.736839 0.056906
vt 0.818731 0.111625
vt 0.888375 0.181269
vt 0.943094 0.263161
vt 0.980785 0.354155
vt 1.000000 0.450754
vt 1.000000 0.549246
vt 0.980785 0.645845
vt 0.943094 0.736839
vt 0.888375 0.818731
vt 0.818731 0.888375
vt 0.736839 0.943094
vt 0.645845 0.980785
vt 0.549246 1.000000
vt 0.450754 1.000000
vt 0.354155 0.980785
vt 0.263161 0.943094
vt 0.000000 0.381110
vt 0.000000 0.244499
vt 0.037334 0.244499
vt 0.037334 0.381110
vt 0.037334 1.000000
vt 0.037334 0.901509
vt 0.074667 0.901509
vt 0.074667 1.000000
vt 0.000000 0.115814
vt 0.037334 0.115814
vt 0.037334 0.785695
vt 0.074667 0.785695
vt 0.000000 0.000000
vt 0.037334 0.000000
vt 0.037334 0.657010
vt 0.074668 0.657010
vt 0.074668 0.381110
vt 0.074668 0.244499
vt 0.112001 0.244499
vt 0.112001 0.381110
vt 0.074668 1.000000
vt 0.074668 0.901509
vt 0.112001 0.901509
vt 0.112001 1.000000
vt 0.037334 0.520398
vt 0.074668 0.520398
vt 0.074668 0.115814
vt 0.112001 0.115814
vt 0.074668 0.785695
vt 0.112001 0.785695
vt 0.037334 0.381110
vt 0.074668 0.381110
vt 0.074668 -0.000000
vt 0.112001 -0.000000
vt 0.074668 0.657010
vt 0.112001 0.657010
vt 0.037334 0.244499
vt 0.074668 0.244499
vt 0.112001 1.000000
vt 0.112001 0.901509
vt 0.149335 0.901509
vt 0.149335 1.000000
vt 0.074668 0.520398
vt 0.112001 0.520398
vt 0.037334 0.115814
vt 0.074668 0.115814
vt 0.112001 0.785695
vt 0.149335 0.785695
vt 0.037334 0.000000
vt 0.074668 0.000000
vt 0.112001 0.657010
vt 0.149335 0.657010
vt 0.000000 1.000000
vt 0.000000 0.901509
vt 0.037334 0.901509
vt 0.037334 1.000000
vt 0.112001 0.520398
vt 0.149335 0.520398
vt 0.000000 0.785695
vt 0.037334 0.785695
vt 0.112001 0.381110
vt 0.149335 0.381110
vt 0.000000 0.657010
vt 0.037334 0.657010
vt 0.112001 0.244499
vt 0.149335 0.244499
vt 0.000000 0.520398
vt 0.037334 0.520398
vt 0.112001 0.115814
vt 0.149335 0.115814
vt 0.112001 -0.000000
vt 0.149335 -0.000000
s 0
usemtl Mesa
f 66/137/65 67/168/65 68/167/65 69/166/65 70/165/65 71/164/65 72/163/65 73/162/65 74/161/65 75/160/65 76/159/65 77/158/65 78/157/65 79/156/65 80/155/65 81/154/65 82/153/65 83/152/65 84/151/65 85/150/65 86/149/65 87/148/65 88/147/65 89/146/65 90/145/65 91/144/65 92/143/65 93/142/65 94/141/65 95/140/65 96/139/65 65/138/65
f 97/139/66 98/138/66 128/137/66 127/168/66 126/167/66 125/166/66 124/165/66 123/164/66 122/163/66 121/162/66 120/161/66 119/160/66 118/159/66 117/158/66 116/157/66 115/156/66 114/155/66 113/154/66 112/153/66 111/152/66 110/151/66 109/150/66 108/149/66 107/148/66 106/147/66 105/146/66 104/145/66 103/144/66 102/143/66 101/142/66 100/141/66 99/140/66
f 89/169/67 121/172/67 122/171/67 90/170/67
f 76/173/68 108/176/68 109/175/68 77/174/68
f 90/170/69 122/171/69 123/178/69 91/177/69
f 77/174/70 109/175/70 110/180/70 78/179/70
f 91/177/71 123/178/71 124/182/71 92/181/71
f 78/179/72 110/180/72 111/184/72 79/183/72
f 65/185/73 98/188/73 97/187/73 66/186/73
f 92/189/74 124/192/74 125/191/74 93/190/74
f 79/183/75 111/184/75 112/194/75 80/193/75
f 66/186/76 97/187/76 99/196/76 67/195/76
f 93/190/77 125/191/77 126/198/77 94/197/77
f 80/193/78 112/194/78 113/200/78 81/199/78
f 67/195/79 99/196/79 100/202/79 68/201/79
f 94/197/80 126/198/80 127/204/80 95/203/80
f 81/199/81 113/200/81 114/206/81 82/205/81
f 68/207/82 100/210/82 101/209/82 69/208/82
f 95/203/83 127/204/83 128/212/83 96/211/83
f 82/205/84 114/206/84 115/214/84 83/213/84
f 69/208/85 101/209/85 102/216/85 70/215/85
f 96/211/86 128/212/86 98/188/86 65/185/86
f 83/213/87 115/214/87 116/218/87 84/217/87
f 70/215/88 102/216/88 103/220/88 71/219/88
f 84/221/89 116/224/89 117/223/89 85/222/89
f 71/219/90 103/220/90 104/226/90 72/225/90
f 85/222/91 117/223/91 118/228/91 86/227/91
f 72/225/92 104/226/92 105/230/92 73/229/92
f 86/227/93 118/228/93 119/232/93 87/231/93
f 73/229/94 105/230/94 106/234/94 74/233/94
f 87/231/95 119/232/95 120/236/95 88/235/95
f 74/233/96 106/234/96 107/238/96 75/237/96
f 88/235/97 120/236/97 121/172/97 89/169/97
f 75/237/98 107/238/98 108/240/98 76/239/98
